<svg width="86" height="86" viewBox="0 0 86 86" fill="none" xmlns="http://www.w3.org/2000/svg">
<rect x="0.5" y="0.5" width="85" height="85" rx="1.5" stroke="#7B7B7B"/>
<rect x="39.5" y="13.5" width="7" height="7" rx="0.5" stroke="#7B7B7B"/>
<circle cx="43" cy="17" r="3.5" stroke="#7B7B7B"/>
<rect x="37" y="20" width="12" height="4" rx="1" fill="#7B7B7B"/>
<mask id="path-5-inside-1_3_2996" fill="white">
<path d="M31 30C31 26.6863 33.6863 24 37 24H49C52.3137 24 55 26.6863 55 30V71C55 72.1046 54.1046 73 53 73H33C31.8954 73 31 72.1046 31 71V30Z"/>
</mask>
<path d="M31 30C31 26.6863 33.6863 24 37 24H49C52.3137 24 55 26.6863 55 30V71C55 72.1046 54.1046 73 53 73H33C31.8954 73 31 72.1046 31 71V30Z" stroke="#7B7B7B" stroke-width="6" mask="url(#path-5-inside-1_3_2996)"/>
<rect x="35" y="35" width="2" height="26" rx="1" fill="#7B7B7B"/>
</svg>
